<svg xmlns="http://www.w3.org/2000/svg" width="19.88" height="19.88" viewBox="0 0 19.88 19.88"><defs><style>.a{fill:#fff;}</style></defs><path class="a" d="M18.46,2.25H1.416A1.426,1.426,0,0,0,0,3.683V20.7A1.426,1.426,0,0,0,1.416,22.13H18.46A1.43,1.43,0,0,0,19.88,20.7V3.683A1.43,1.43,0,0,0,18.46,2.25ZM6.008,19.29H3.062V9.8H6.013V19.29ZM4.535,8.507A1.708,1.708,0,1,1,6.244,6.8,1.709,1.709,0,0,1,4.535,8.507ZM17.053,19.29H14.107V14.675c0-1.1-.022-2.516-1.531-2.516-1.535,0-1.771,1.2-1.771,2.436V19.29H7.859V9.8h2.827v1.3h.04a3.1,3.1,0,0,1,2.791-1.531c2.982,0,3.537,1.966,3.537,4.522Z" transform="translate(0 -2.25)"/></svg>