<svg xmlns="http://www.w3.org/2000/svg" width="22.72" height="18.453" viewBox="0 0 22.72 18.453"><defs><style>.a{fill:#fff;}</style></defs><path class="a" d="M20.384,7.979c.014.2.014.4.014.605A13.158,13.158,0,0,1,7.15,21.833,13.159,13.159,0,0,1,0,19.743a9.632,9.632,0,0,0,1.124.058,9.325,9.325,0,0,0,5.781-1.989,4.665,4.665,0,0,1-4.354-3.229,5.872,5.872,0,0,0,.879.072A4.925,4.925,0,0,0,4.656,14.5,4.657,4.657,0,0,1,.923,9.926V9.868a4.689,4.689,0,0,0,2.1.591A4.663,4.663,0,0,1,1.586,4.231a13.236,13.236,0,0,0,9.6,4.873,5.257,5.257,0,0,1-.115-1.067A4.661,4.661,0,0,1,19.13,4.851a9.168,9.168,0,0,0,2.955-1.124,4.644,4.644,0,0,1-2.047,2.566,9.335,9.335,0,0,0,2.681-.721,10.009,10.009,0,0,1-2.335,2.407Z" transform="translate(0 -3.381)"/></svg>