<?xml version="1.0" encoding="utf-8"?>
<!-- Generator: Adobe Illustrator 24.0.2, SVG Export Plug-In . SVG Version: 6.00 Build 0)  -->
<svg version="1.1" id="Layer_1" xmlns="http://www.w3.org/2000/svg" xmlns:xlink="http://www.w3.org/1999/xlink" x="0px" y="0px"
	 viewBox="0 0 1919.8 300" style="enable-background:new 0 0 1919.8 300;" xml:space="preserve">
<style type="text/css">
	.st0{fill:#125474;}
	.st1{fill:#115272;}
	.st2{fill:url(#SVGID_1_);}
	.st3{fill:#175979;}
	.st4{fill:url(#SVGID_2_);}
	.st5{fill:url(#SVGID_3_);}
	.st6{fill:url(#SVGID_4_);}
	.st7{fill:#185D7B;}
	.st8{fill:url(#SVGID_5_);}
	.st9{fill:#155777;}
	.st10{fill:#175C7B;}
	.st11{fill:#185977;}
	.st12{fill:#185A7A;}
</style>
<g>
	<rect y="0" class="st0" width="1919.8" height="300"/>
	<polygon class="st1" points="1611.2,0 1428.3,300 1561,300 1733.5,0 	"/>
	<linearGradient id="SVGID_1_" gradientUnits="userSpaceOnUse" x1="0" y1="149.9813" x2="552.38" y2="149.9813">
		<stop  offset="0" style="stop-color:#115071"/>
		<stop  offset="1" style="stop-color:#135575"/>
	</linearGradient>
	<polygon class="st2" points="0,0 378.4,0 552.4,300 0,300 	"/>
	<polygon class="st3" points="332.4,300 380,215.4 428.4,300 	"/>
	<linearGradient id="SVGID_2_" gradientUnits="userSpaceOnUse" x1="378.38" y1="149.9813" x2="915.03" y2="149.9813">
		<stop  offset="0" style="stop-color:#175877"/>
		<stop  offset="1" style="stop-color:#1C5D79"/>
	</linearGradient>
	<polygon class="st4" points="378.4,0 915,0 740,300 552.4,300 	"/>
	<linearGradient id="SVGID_3_" gradientUnits="userSpaceOnUse" x1="739.9838" y1="149.9812" x2="1304.2102" y2="149.9812">
		<stop  offset="0" style="stop-color:#225F7C"/>
		<stop  offset="1" style="stop-color:#195876"/>
	</linearGradient>
	<polygon class="st5" points="1130.3,0 915,0 740,300 1153.9,300 1228.3,169.1 	"/>
	<linearGradient id="SVGID_4_" gradientUnits="userSpaceOnUse" x1="739.9838" y1="234.5304" x2="1304.2102" y2="234.5304">
		<stop  offset="0" style="stop-color:#225F7C"/>
		<stop  offset="1" style="stop-color:#195876"/>
	</linearGradient>
	<polygon class="st6" points="1153.9,300 1304.2,300 1228.3,169.1 	"/>
	<polygon class="st7" points="1153.9,300 1304.2,300 1228.3,169.1 	"/>
	<linearGradient id="SVGID_5_" gradientUnits="userSpaceOnUse" x1="1153.8706" y1="149.9812" x2="1719.9083" y2="149.9812">
		<stop  offset="2.237672e-07" style="stop-color:#175B79"/>
		<stop  offset="1" style="stop-color:#1D5E7C"/>
	</linearGradient>
	<polygon class="st8" points="1543.3,0 1324.6,0 1228.3,169.1 1304.2,300 1561,300 1639.5,163.4 	"/>
	<polygon class="st9" points="1733.5,0 1639.5,163.4 1719.9,300 1919.8,300 1919.8,0 	"/>
	<polygon class="st10" points="1561,300 1719.9,300 1639.5,163.4 	"/>
	<polygon class="st11" points="1130.3,0 1228.3,169.1 1324.6,0 	"/>
	<polygon class="st12" points="1543.3,0 1611.2,0 1576.7,56.7 	"/>
</g>
</svg>
