<?xml version="1.0" encoding="UTF-8" standalone="no"?><!-- Generator: Gravit.io --><svg xmlns="http://www.w3.org/2000/svg" xmlns:xlink="http://www.w3.org/1999/xlink" style="isolation:isolate" viewBox="0 0 945 630" width="945pt" height="630pt"><defs><clipPath id="_clipPath_muCnXZJtdjI99R2G7z68lsEORKQ16m6w"><rect width="945" height="630"/></clipPath></defs><g clip-path="url(#_clipPath_muCnXZJtdjI99R2G7z68lsEORKQ16m6w)"><clipPath id="_clipPath_vNBab6Z8LnrL0bOCMhl7X6jx3lh0Kane"><rect x="-446.9" y="0" width="1393" height="630" transform="matrix(1,0,0,1,0,0)" fill="rgb(255,255,255)"/></clipPath><g clip-path="url(#_clipPath_vNBab6Z8LnrL0bOCMhl7X6jx3lh0Kane)"><g/><g><path d=" M -423.9 630 L -0.1 0 L 950.1 0 L 950.1 630 L -423.9 630 Z " fill="rgb(18,84,116)"/><g><path d=" M 258.7 0 L 118.1 0 L 174.2 121.4 L 258.7 0 Z " fill="rgb(24,93,123)"/><path d=" M 644.7 166.2 L 644.7 166.2 L 759.3 0 L 431.9 0 L 564.4 282.5 L 644.7 166.2 Z " fill="rgb(24,93,123)"/><g filter="url(#1AvpKXwDiAW24DQLjrlN66ITM4Kbks61)"><path d=" M -234.5 348.5 L -131.6 560.5 L 174.2 121.4 L 118.1 0 L -0.1 0 L -234.5 348.5 Z " fill="rgb(26,92,122)"/></g><defs><filter id="1AvpKXwDiAW24DQLjrlN66ITM4Kbks61" x="-200%" y="-200%" width="400%" height="400%" filterUnits="objectBoundingBox" color-interpolation-filters="sRGB"><feGaussianBlur xmlns="http://www.w3.org/2000/svg" in="SourceGraphic" stdDeviation="3"/><feOffset xmlns="http://www.w3.org/2000/svg" dx="-12" dy="0" result="pf_100_offsetBlur"/><feFlood xmlns="http://www.w3.org/2000/svg" flood-color="#000000" flood-opacity="0.161"/><feComposite xmlns="http://www.w3.org/2000/svg" in2="pf_100_offsetBlur" operator="in" result="pf_100_dropShadow"/><feBlend xmlns="http://www.w3.org/2000/svg" in="SourceGraphic" in2="pf_100_dropShadow" mode="normal"/></filter></defs><g filter="url(#sJZUjKw3OdUkhMjV4iCjMdU8wWpkA3yr)"><path d=" M -234.5 348.5 L -423.9 630 L -180.1 630 L -131.6 560.5 L -234.5 348.5 Z " fill="rgb(23,92,122)"/></g><defs><filter id="sJZUjKw3OdUkhMjV4iCjMdU8wWpkA3yr" x="-200%" y="-200%" width="400%" height="400%" filterUnits="objectBoundingBox" color-interpolation-filters="sRGB"><feGaussianBlur xmlns="http://www.w3.org/2000/svg" in="SourceGraphic" stdDeviation="3"/><feOffset xmlns="http://www.w3.org/2000/svg" dx="-12" dy="0" result="pf_100_offsetBlur"/><feFlood xmlns="http://www.w3.org/2000/svg" flood-color="#000000" flood-opacity="0.161"/><feComposite xmlns="http://www.w3.org/2000/svg" in2="pf_100_offsetBlur" operator="in" result="pf_100_dropShadow"/><feBlend xmlns="http://www.w3.org/2000/svg" in="SourceGraphic" in2="pf_100_dropShadow" mode="normal"/></filter></defs><path d=" M 375.1 556.9 L 564.4 282.5 L 431.9 0 L 258.7 0 L 174.2 121.4 L 375.1 556.9 Z " fill="rgb(24,92,121)"/><path d=" M 174.2 121.4 L -131.6 560.5 L -97.9 630 L 324.6 630 L 375.1 556.9 L 174.2 121.4 Z " fill="rgb(29,94,123)"/><path d=" M -180.1 630 L -97.9 630 L -131.6 560.5 L -180.1 630 Z " fill="rgb(25,90,120)"/><path d=" M 759.3 0 L 644.7 166.2 L 843.2 588.8 L 950.1 443.1 L 950.1 0 L 759.3 0 Z " fill="rgb(22,90,120)"/><path d=" M 644.7 166.2 L 564.4 282.5 L 727.4 630 L 813 630 L 843.2 588.8 L 644.7 166.2 Z " fill="rgb(18,84,116)"/><path d=" M 375.1 556.9 L 408.9 630 L 727.4 630 L 564.4 282.5 L 375.1 556.9 Z " fill="rgb(24,89,119)"/><path d=" M 324.6 630 L 408.9 630 L 375.1 556.9 L 324.6 630 Z " fill="rgb(28,93,122)"/><path d=" M 862.6 630 L 950.1 630 L 950.1 443.1 L 843.2 588.8 L 862.6 630 Z " fill="rgb(17,82,114)"/><path d=" M 813 630 L 862.6 630 L 843.2 588.8 L 813 630 Z " fill="rgb(17,82,114)"/></g></g></g></g></svg>