<?xml version="1.0" encoding="UTF-8" standalone="no"?><!-- Generator: Gravit.io --><svg xmlns="http://www.w3.org/2000/svg" xmlns:xlink="http://www.w3.org/1999/xlink" style="isolation:isolate" viewBox="0 0 1374 630" width="1374pt" height="630pt"><defs><clipPath id="_clipPath_lWYZ9dnEHASc9eEBsvJbiMt48fmh2M5V"><rect width="1374" height="630"/></clipPath></defs><g clip-path="url(#_clipPath_lWYZ9dnEHASc9eEBsvJbiMt48fmh2M5V)"><defs><filter id="ivD4mJSzajM0Fn4wIaeFW9heSYl0NEmH" x="-200%" y="-200%" width="400%" height="400%" filterUnits="objectBoundingBox" color-interpolation-filters="sRGB"><feGaussianBlur xmlns="http://www.w3.org/2000/svg" in="SourceGraphic" stdDeviation="8.587218125678056"/><feOffset xmlns="http://www.w3.org/2000/svg" dx="-6" dy="0" result="pf_100_offsetBlur"/><feFlood xmlns="http://www.w3.org/2000/svg" flood-color="#000000" flood-opacity="0.65"/><feComposite xmlns="http://www.w3.org/2000/svg" in2="pf_100_offsetBlur" operator="in" result="pf_100_dropShadow"/><feBlend xmlns="http://www.w3.org/2000/svg" in="SourceGraphic" in2="pf_100_dropShadow" mode="normal"/></filter></defs><g filter="url(#ivD4mJSzajM0Fn4wIaeFW9heSYl0NEmH)"><path d=" M 20 630 L 443.8 0 L 1394 0 L 1394 630 L 20 630 Z " fill="rgb(18,84,116)"/></g><g><path d=" M 702.6 0 L 562 0 L 618.1 121.4 L 702.6 0 Z " fill="rgb(24,93,123)"/><path d=" M 1088.6 166.2 L 1088.6 166.2 L 1203.2 0 L 875.8 0 L 1008.3 282.5 L 1088.6 166.2 Z " fill="rgb(24,93,123)"/><path d=" M 209.4 348.5 L 312.3 560.5 L 618.1 121.4 L 562 0 L 443.8 0 L 209.4 348.5" fill="rgb(26,92,122)"/><path d=" M 209.4 348.5 L 20 630 L 263.8 630 L 312.3 560.5 L 209.4 348.5 Z " fill="rgb(23,92,122)"/><path d=" M 819 556.9 L 1008.3 282.5 L 875.8 0 L 702.6 0 L 618.1 121.4 L 819 556.9 Z " fill="rgb(24,92,121)"/><path d=" M 618.1 121.4 L 312.3 560.5 L 346 630 L 768.5 630 L 819 556.9 L 618.1 121.4 Z " fill="rgb(29,94,123)"/><path d=" M 263.8 630 L 346 630 L 312.3 560.5 L 263.8 630 Z " fill="rgb(25,90,120)"/><path d=" M 1203.2 0 L 1088.6 166.2 L 1287.1 588.8 L 1394 443.1 L 1394 0 L 1203.2 0 Z " fill="rgb(22,90,120)"/><path d=" M 1088.6 166.2 L 1008.3 282.5 L 1171.3 630 L 1256.9 630 L 1287.1 588.8 L 1088.6 166.2 Z " fill="rgb(18,84,116)"/><path d=" M 819 556.9 L 852.8 630 L 1171.3 630 L 1008.3 282.5 L 819 556.9 Z " fill="rgb(24,89,119)"/><path d=" M 768.5 630 L 852.8 630 L 819 556.9 L 768.5 630 Z " fill="rgb(28,93,122)"/><path d=" M 1306.5 630 L 1394 630 L 1394 443.1 L 1287.1 588.8 L 1306.5 630 Z " fill="rgb(17,82,114)"/><path d=" M 1256.9 630 L 1306.5 630 L 1287.1 588.8 L 1256.9 630 Z " fill="rgb(17,82,114)"/></g></g></svg>