<?xml version="1.0" encoding="UTF-8" standalone="no"?><!-- Generator: Gravit.io --><svg xmlns="http://www.w3.org/2000/svg" xmlns:xlink="http://www.w3.org/1999/xlink" style="isolation:isolate" viewBox="0 0 450 630" width="450pt" height="630pt"><defs><clipPath id="_clipPath_NgTJg3rjTtxR7X4kdBxfkO2nIguqZsuS"><rect width="450" height="630"/></clipPath></defs><g clip-path="url(#_clipPath_NgTJg3rjTtxR7X4kdBxfkO2nIguqZsuS)"><path d=" M 21 630 L 444.8 0 L 1395 0 L 1395 630 L 21 630 Z " fill="rgb(18,84,116)"/><g><path d=" M 703.6 0 L 563 0 L 619.1 121.4 L 703.6 0 Z " fill="rgb(24,93,123)"/><path d=" M 1089.6 166.2 L 1089.6 166.2 L 1204.2 0 L 876.8 0 L 1009.3 282.5 L 1089.6 166.2 Z " fill="rgb(24,93,123)"/><g filter="url(#qIRZ7VinDyOCtRjnn3biXiPC1t89qXbF)"><path d=" M 210.4 348.5 L 313.3 560.5 L 619.1 121.4 L 563 0 L 444.8 0 L 210.4 348.5 Z " fill="rgb(26,92,122)"/></g><defs><filter id="qIRZ7VinDyOCtRjnn3biXiPC1t89qXbF" x="-200%" y="-200%" width="400%" height="400%" filterUnits="objectBoundingBox" color-interpolation-filters="sRGB"><feGaussianBlur xmlns="http://www.w3.org/2000/svg" in="SourceGraphic" stdDeviation="3"/><feOffset xmlns="http://www.w3.org/2000/svg" dx="-12" dy="0" result="pf_100_offsetBlur"/><feFlood xmlns="http://www.w3.org/2000/svg" flood-color="#000000" flood-opacity="0.161"/><feComposite xmlns="http://www.w3.org/2000/svg" in2="pf_100_offsetBlur" operator="in" result="pf_100_dropShadow"/><feBlend xmlns="http://www.w3.org/2000/svg" in="SourceGraphic" in2="pf_100_dropShadow" mode="normal"/></filter></defs><g filter="url(#FIl8e4V4XrHKqWPgEu9s3885SyBp2XF1)"><path d=" M 210.4 348.5 L 21 630 L 264.8 630 L 313.3 560.5 L 210.4 348.5 Z " fill="rgb(23,92,122)"/></g><defs><filter id="FIl8e4V4XrHKqWPgEu9s3885SyBp2XF1" x="-200%" y="-200%" width="400%" height="400%" filterUnits="objectBoundingBox" color-interpolation-filters="sRGB"><feGaussianBlur xmlns="http://www.w3.org/2000/svg" in="SourceGraphic" stdDeviation="3"/><feOffset xmlns="http://www.w3.org/2000/svg" dx="-12" dy="0" result="pf_100_offsetBlur"/><feFlood xmlns="http://www.w3.org/2000/svg" flood-color="#000000" flood-opacity="0.161"/><feComposite xmlns="http://www.w3.org/2000/svg" in2="pf_100_offsetBlur" operator="in" result="pf_100_dropShadow"/><feBlend xmlns="http://www.w3.org/2000/svg" in="SourceGraphic" in2="pf_100_dropShadow" mode="normal"/></filter></defs><path d=" M 820 556.9 L 1009.3 282.5 L 876.8 0 L 703.6 0 L 619.1 121.4 L 820 556.9 Z " fill="rgb(24,92,121)"/><path d=" M 619.1 121.4 L 313.3 560.5 L 347 630 L 769.5 630 L 820 556.9 L 619.1 121.4 Z " fill="rgb(29,94,123)"/><path d=" M 264.8 630 L 347 630 L 313.3 560.5 L 264.8 630 Z " fill="rgb(25,90,120)"/><path d=" M 1204.2 0 L 1089.6 166.2 L 1288.1 588.8 L 1395 443.1 L 1395 0 L 1204.2 0 Z " fill="rgb(22,90,120)"/><path d=" M 1089.6 166.2 L 1009.3 282.5 L 1172.3 630 L 1257.9 630 L 1288.1 588.8 L 1089.6 166.2 Z " fill="rgb(18,84,116)"/><path d=" M 820 556.9 L 853.8 630 L 1172.3 630 L 1009.3 282.5 L 820 556.9 Z " fill="rgb(24,89,119)"/><path d=" M 769.5 630 L 853.8 630 L 820 556.9 L 769.5 630 Z " fill="rgb(28,93,122)"/><path d=" M 1307.5 630 L 1395 630 L 1395 443.1 L 1288.1 588.8 L 1307.5 630 Z " fill="rgb(17,82,114)"/><path d=" M 1257.9 630 L 1307.5 630 L 1288.1 588.8 L 1257.9 630 Z " fill="rgb(17,82,114)"/></g></g></svg>