<svg xmlns="http://www.w3.org/2000/svg" width="157.36" height="50.322" viewBox="0 0 157.36 50.322">
  <g transform="translate(-347.831 -398.111)">
    <g transform="translate(347.831 398.111)">
      <path d="M417.647,456.513c0,1.693-.989,3.158-4.052,3.158s-4.053-1.465-4.053-3.158v-3.956c0-1.694.989-3.159,4.053-3.159s4.052,1.465,4.052,3.159Zm-4.052-5.689c-1.77,0-2.435.609-2.435,1.789v3.844c0,1.179.665,1.789,2.435,1.789,1.751,0,2.435-.61,2.435-1.789v-3.844C416.03,451.433,415.346,450.824,413.595,450.824Z" transform="translate(-378.712 -409.349)" fill="#125575"/>
      <path d="M433.852,459.272V449.4h-1.617v7.413l-4.871-7.413h-1.617v9.894h1.617v-7.216l4.871,7.2v.019h1.63Z" transform="translate(-381.186 -409.349)" fill="#125575"/>
      <path d="M445.357,459.67a10.405,10.405,0,0,1-3.405-.589l.229-1.275a12.033,12.033,0,0,0,3.2.475c1.655,0,1.978-.284,1.978-1.331,0-1.141,0-1.2-2.265-1.788-2.893-.763-3.024-1.257-3.024-3.121,0-2,.913-2.643,3.653-2.643a14.217,14.217,0,0,1,3.025.361l-.134,1.333a17.164,17.164,0,0,0-2.872-.3c-1.807,0-2.054.171-2.054,1.312,0,1.1.018,1.16,2.225,1.77,2.911.779,3.064,1.16,3.064,3.043C448.974,458.758,448.421,459.67,445.357,459.67Z" transform="translate(-383.661 -409.349)" fill="#125575"/>
      <path d="M466.147,449.4v7.059c0,1.655-.971,3.025-3.995,3.025s-3.995-1.37-3.995-3.025V449.4h1.617v6.925c0,1.1.59,1.733,2.378,1.733s2.377-.629,2.377-1.733V449.4Z" transform="translate(-386.136 -409.349)" fill="#125575"/>
      <path d="M475.985,457.674V449.4h-1.617v8.276h-.006v1.617h7.99v-1.617Z" transform="translate(-388.611 -409.349)" fill="#125575"/>
      <path d="M490.641,450.826h-3.254V449.4h8.125v1.428h-3.254v8.466h-1.618Z" transform="translate(-390.6 -409.349)" fill="#125575"/>
      <rect width="1.617" height="9.894" transform="translate(110.518 40.049)" fill="#125575"/>
      <path d="M521.233,459.272V449.4h-1.617v7.413l-4.871-7.413h-1.617v9.894h1.617v-7.216l4.871,7.2v.019h1.63Z" transform="translate(-394.531 -409.349)" fill="#125575"/>
      <path d="M401.442,450.824V449.4H397.39c-3.064,0-4.053,1.465-4.053,3.159v3.956c0,1.693.989,3.158,4.053,3.158h4.053v-1.425H397.39c-1.77,0-2.435-.61-2.435-1.789v-3.844c0-1.179.665-1.789,2.435-1.789h4.053Z" transform="translate(-376.237 -409.349)" fill="#125575"/>
      <path d="M537.438,450.824V449.4h-4.053c-3.064,0-4.052,1.465-4.052,3.159v3.956c0,1.693.989,3.158,4.052,3.158h4.053v-5.136h-1.617v3.711h-2.435c-1.77,0-2.435-.61-2.435-1.789v-3.844c0-1.179.665-1.789,2.435-1.789h4.053Z" transform="translate(-397.005 -409.349)" fill="#125575"/>
      <g transform="translate(0 0)">
        <g transform="translate(126.062 0.09)">
          <path d="M569.019,406.681a15.021,15.021,0,0,0-11.182-4.445,15.3,15.3,0,0,0-11.182,4.445,14.745,14.745,0,0,0-4.535,10.912,15.109,15.109,0,0,0,4.22,11q4.244,4.311,11.451,4.311a15.23,15.23,0,0,0,11.226-4.356,15.787,15.787,0,0,0,0-21.869ZM565.381,425.5a10.679,10.679,0,0,1-15.178.045,11.31,11.31,0,0,1-2.874-7.948,11.163,11.163,0,0,1,2.919-7.814,9.93,9.93,0,0,1,7.589-3.188,9.767,9.767,0,0,1,7.544,3.188,11.162,11.162,0,0,1,2.919,7.814A11.307,11.307,0,0,1,565.381,425.5Z" transform="translate(-542.121 -402.236)" fill="#125575"/>
        </g>
        <path d="M510.916,402.925v29.592h5.164v-25.6h5.344c3.816,0,6.331,2.245,6.331,5.883,0,3.278-3.009,6.2-8.531,6.556v.629c.539.674,2.066,2.739,4.625,6.242,2.56,3.458,4.131,5.568,4.715,6.287h6.062l-8.846-11.047c4.715-1.661,7.1-5.209,7.1-9.026a8.512,8.512,0,0,0-3.188-6.96,11.471,11.471,0,0,0-7.454-2.559Z" transform="translate(-411.293 -402.251)" fill="#125575"/>
        <g transform="translate(72.761 0.674)">
          <path d="M498.028,405.843c-1.886-1.931-4.58-2.918-8.038-2.918H479.213v29.592h5.208v-9.7h5.7a11.093,11.093,0,0,0,7.724-2.784,9.523,9.523,0,0,0,3.054-7.275A9.394,9.394,0,0,0,498.028,405.843Zm-3.952,11.227a6.258,6.258,0,0,1-4.895,1.751h-4.8V406.876h4.536c4.491,0,6.736,2.649,6.736,6.017A6.276,6.276,0,0,1,494.076,417.07Z" transform="translate(-479.213 -402.925)" fill="#125575"/>
        </g>
        <path d="M441.492,417.8a15.193,15.193,0,0,0,4,10.822c2.649,2.829,6.422,4.221,11.226,4.221a25.346,25.346,0,0,0,10.193-1.751V417.4h-4.67v10.373a13.289,13.289,0,0,1-4.984.943c-3.368,0-5.973-.988-7.814-3.009a11.439,11.439,0,0,1-2.694-7.859,11.074,11.074,0,0,1,3.1-8.263,10.9,10.9,0,0,1,7.948-3.1,16.262,16.262,0,0,1,7.858,1.886v-4.625a18.079,18.079,0,0,0-8.217-1.617A15.287,15.287,0,0,0,441.492,417.8" transform="translate(-400.691 -402.13)" fill="#125575"/>
        <rect width="5.164" height="29.637" transform="translate(29.433 0.628)" fill="#125575"/>
        <path d="M393.337,402.925v29.592H398.5v-25.6h5.344c3.816,0,6.331,2.245,6.331,5.883,0,3.278-3.009,6.2-8.531,6.556v.629c.539.674,2.066,2.739,4.625,6.242,2.559,3.458,4.13,5.568,4.714,6.287h6.062L408.2,421.47c4.715-1.661,7.1-5.209,7.1-9.026a8.512,8.512,0,0,0-3.188-6.96,11.471,11.471,0,0,0-7.454-2.559Z" transform="translate(-393.337 -402.251)" fill="#125575"/>
      </g>
    </g>
  </g>
</svg>
