<svg xmlns="http://www.w3.org/2000/svg" width="155.739" height="42" viewBox="0 0 155.739 42"><defs><style>.a{fill:#fff;}</style></defs><g transform="translate(-293.317 -393.296)"><g transform="translate(347.831 398.111)"><path class="a" d="M414.756,453.975c0,1.089-.636,2.031-2.607,2.031s-2.607-.942-2.607-2.031V451.43c0-1.09.636-2.032,2.607-2.032s2.607.942,2.607,2.032Zm-2.607-3.659c-1.139,0-1.566.392-1.566,1.151v2.473c0,.758.428,1.151,1.566,1.151s1.566-.392,1.566-1.151v-2.473C413.715,450.707,413.275,450.315,412.149,450.315Z" transform="translate(-400.71 -423.636)"/><path class="a" d="M430.961,455.75V449.4h-1.04v4.768l-3.133-4.768h-1.04v6.364h1.04V451.12l3.133,4.63v.012h1.049Z" transform="translate(-408.082 -423.636)"/><path class="a" d="M444.142,456.006a6.693,6.693,0,0,1-2.19-.379l.147-.82a7.74,7.74,0,0,0,2.056.306c1.064,0,1.273-.183,1.273-.856,0-.734,0-.771-1.457-1.15-1.861-.491-1.945-.808-1.945-2.008,0-1.284.587-1.7,2.35-1.7a9.145,9.145,0,0,1,1.946.232l-.086.857a11.042,11.042,0,0,0-1.848-.2c-1.163,0-1.321.11-1.321.844,0,.71.011.746,1.431,1.139,1.873.5,1.971.746,1.971,1.957C446.469,455.419,446.113,456.006,444.142,456.006Z" transform="translate(-415.455 -423.636)"/><path class="a" d="M463.3,449.4v4.541c0,1.064-.625,1.946-2.57,1.946s-2.57-.881-2.57-1.946V449.4h1.04v4.455c0,.71.379,1.115,1.53,1.115s1.529-.4,1.529-1.115V449.4Z" transform="translate(-422.828 -423.636)"/><path class="a" d="M475.406,454.722V449.4h-1.04v5.324h0v1.04h5.14v-1.04Z" transform="translate(-430.201 -423.636)"/><path class="a" d="M489.48,450.316h-2.093V449.4h5.226v.918H490.52v5.446h-1.04Z" transform="translate(-436.127 -423.636)"/><rect class="a" width="1.04" height="6.364" transform="translate(60.093 25.762)"/><path class="a" d="M518.342,455.75V449.4H517.3v4.768l-3.133-4.768h-1.04v6.364h1.04V451.12l3.133,4.63v.012h1.049Z" transform="translate(-447.838 -423.636)"/><path class="a" d="M398.551,450.315V449.4h-2.607c-1.971,0-2.607.942-2.607,2.032v2.545c0,1.089.636,2.031,2.607,2.031h2.607v-.917h-2.607c-1.139,0-1.566-.392-1.566-1.151v-2.473c0-.759.428-1.151,1.566-1.151h2.607Z" transform="translate(-393.337 -423.636)"/><path class="a" d="M534.547,450.315V449.4H531.94c-1.971,0-2.607.942-2.607,2.032v2.545c0,1.089.636,2.031,2.607,2.031h2.607v-3.3h-1.04v2.387H531.94c-1.139,0-1.566-.392-1.566-1.151v-2.473c0-.759.428-1.151,1.566-1.151h2.607Z" transform="translate(-455.211 -423.636)"/><g transform="translate(0 0)"><g transform="translate(81.092 0.058)"><path class="a" d="M559.424,405.1a9.662,9.662,0,0,0-7.193-2.859,9.845,9.845,0,0,0-7.193,2.859,9.485,9.485,0,0,0-2.917,7.019,9.719,9.719,0,0,0,2.715,7.077,10.935,10.935,0,0,0,14.588-.029,10.155,10.155,0,0,0,0-14.068Zm-2.34,12.1a6.869,6.869,0,0,1-9.764.029,7.275,7.275,0,0,1-1.849-5.113,7.18,7.18,0,0,1,1.878-5.026,6.388,6.388,0,0,1,4.882-2.051,6.283,6.283,0,0,1,4.853,2.051,7.18,7.18,0,0,1,1.878,5.026A7.273,7.273,0,0,1,557.084,417.2Z" transform="translate(-542.121 -402.236)"/></g><path class="a" d="M510.916,402.925v19.036h3.322V405.5h3.438c2.455,0,4.072,1.444,4.072,3.784,0,2.109-1.935,3.986-5.488,4.217v.4c.347.433,1.329,1.762,2.975,4.015,1.646,2.224,2.658,3.582,3.033,4.044h3.9l-5.691-7.106c3.033-1.069,4.564-3.351,4.564-5.806a5.476,5.476,0,0,0-2.051-4.477,7.379,7.379,0,0,0-4.795-1.646Z" transform="translate(-446.832 -402.492)"/><g transform="translate(46.805 0.433)"><path class="a" d="M491.316,404.8a6.92,6.92,0,0,0-5.171-1.877h-6.932v19.036h3.35v-6.24h3.669a7.136,7.136,0,0,0,4.968-1.791,6.126,6.126,0,0,0,1.964-4.68A6.043,6.043,0,0,0,491.316,404.8Zm-2.542,7.222a4.026,4.026,0,0,1-3.149,1.127h-3.091v-7.684h2.918c2.889,0,4.333,1.7,4.333,3.871A4.037,4.037,0,0,1,488.774,412.024Z" transform="translate(-479.213 -402.925)"/></g><path class="a" d="M441.492,412.211a9.773,9.773,0,0,0,2.571,6.962,9.431,9.431,0,0,0,7.222,2.715,16.3,16.3,0,0,0,6.557-1.127v-8.81h-3v6.673a8.548,8.548,0,0,1-3.206.607,6.447,6.447,0,0,1-5.026-1.935,7.358,7.358,0,0,1-1.733-5.055,7.123,7.123,0,0,1,1.993-5.315,7.014,7.014,0,0,1,5.113-1.993,10.461,10.461,0,0,1,5.055,1.213V403.17a11.629,11.629,0,0,0-5.286-1.04,9.833,9.833,0,0,0-10.255,10.081" transform="translate(-415.246 -402.13)"/><rect class="a" width="3.322" height="19.065" transform="translate(18.933 0.404)"/><path class="a" d="M393.337,402.925v19.036h3.322V405.5H400.1c2.455,0,4.072,1.444,4.072,3.784,0,2.109-1.935,3.986-5.488,4.217v.4c.347.433,1.329,1.762,2.975,4.015,1.646,2.224,2.657,3.582,3.033,4.044h3.9l-5.691-7.106c3.033-1.069,4.564-3.351,4.564-5.806a5.475,5.475,0,0,0-2.051-4.477,7.379,7.379,0,0,0-4.795-1.646Z" transform="translate(-393.337 -402.492)"/></g></g><g transform="translate(293.317 393.296)"><path class="a" d="M303.315,445.659l-4.59,3.24a21,21,0,0,0,16.728,10.2l-1.032-5.6Z" transform="translate(-295.777 -417.12)"/><path class="a" d="M315.712,413.02l-3.759,2.654,4.884,3.448Z" transform="translate(-301.796 -402.27)"/><path class="a" d="M319.254,445.423l-2-10.835-6.675,4.712Z" transform="translate(-301.171 -412.083)"/><path class="a" d="M296.164,413.022a20.854,20.854,0,0,0-2.428,7.018l6.185-4.366Z" transform="translate(-293.508 -402.271)"/><path class="a" d="M309.982,403.285l-1.2-6.521a21.091,21.091,0,0,0-8.472,7.033l4.476,3.159Z" transform="translate(-296.497 -394.874)"/><path class="a" d="M293.508,436.031a20.866,20.866,0,0,0,1.826,6.562l3.735-2.636Z" transform="translate(-293.404 -412.739)"/><path class="a" d="M347.28,414.307a21.014,21.014,0,0,0-13.06-19.449c-.854,1.963.756,5.9,1.853,7.87.773,1.231,1.026,1.623,1.553,2.461a6.212,6.212,0,0,1,.947,3.494,5.464,5.464,0,0,1-10.918,0,6.208,6.208,0,0,1,.948-3.494c.526-.838.78-1.231,1.552-2.461,1.438-2.586,3.743-8.363.123-9.013l.288.023a21.054,21.054,0,0,0-10.958.643l7.545,40.916A21.01,21.01,0,0,0,347.28,414.307Z" transform="translate(-305.279 -393.296)"/><path class="a" d="M293.317,426.163l7.537,5.321,8.116-5.729-.051-.275-7.317-5.165Z" transform="translate(-293.317 -405.588)"/></g></g></svg>