<svg xmlns="http://www.w3.org/2000/svg" width="142.058" height="150.499" viewBox="0 0 142.058 150.499">
  <g id="Group_31" data-name="Group 31" transform="translate(-285.831 -393.296)">
    <g id="Group_4" data-name="Group 4" transform="translate(285.831 516.027)">
      <g id="Group_3" data-name="Group 3" transform="translate(0 0)">
        <g id="Group_1" data-name="Group 1" transform="translate(113.803 0.081)">
          <path id="Path_10" data-name="Path 10" d="M566.4,406.249a13.56,13.56,0,0,0-10.094-4.013,13.816,13.816,0,0,0-10.094,4.013,13.311,13.311,0,0,0-4.094,9.851,13.64,13.64,0,0,0,3.81,9.932q3.831,3.892,10.338,3.892a13.749,13.749,0,0,0,10.135-3.932,14.252,14.252,0,0,0,0-19.743Zm-3.284,16.986a9.64,9.64,0,0,1-13.7.041,10.209,10.209,0,0,1-2.595-7.176,10.077,10.077,0,0,1,2.635-7.054,8.964,8.964,0,0,1,6.851-2.878,8.817,8.817,0,0,1,6.81,2.878,10.076,10.076,0,0,1,2.635,7.054A10.207,10.207,0,0,1,563.119,423.235Z" transform="translate(-542.121 -402.236)" fill="#125575"/>
        </g>
        <path id="Path_11" data-name="Path 11" d="M510.916,402.925V429.64h4.662V406.532H520.4c3.445,0,5.715,2.027,5.715,5.311,0,2.959-2.716,5.594-7.7,5.919v.568c.486.608,1.865,2.473,4.175,5.635,2.311,3.122,3.73,5.027,4.257,5.675h5.473l-7.986-9.973c4.257-1.5,6.405-4.7,6.405-8.148a7.685,7.685,0,0,0-2.878-6.284,10.356,10.356,0,0,0-6.729-2.31Z" transform="translate(-420.981 -402.317)" fill="#125575"/>
        <g id="Group_2" data-name="Group 2" transform="translate(65.686 0.608)">
          <path id="Path_12" data-name="Path 12" d="M496.2,405.559a9.712,9.712,0,0,0-7.256-2.634h-9.729V429.64h4.7v-8.756h5.149a10.014,10.014,0,0,0,6.973-2.513,8.6,8.6,0,0,0,2.757-6.567A8.48,8.48,0,0,0,496.2,405.559Zm-3.568,10.135a5.649,5.649,0,0,1-4.419,1.581h-4.338V406.492h4.095c4.054,0,6.081,2.392,6.081,5.432A5.666,5.666,0,0,1,492.631,415.694Z" transform="translate(-479.213 -402.925)" fill="#125575"/>
        </g>
        <path id="Path_13" data-name="Path 13" d="M441.492,416.277a13.716,13.716,0,0,0,3.608,9.77c2.392,2.554,5.8,3.811,10.135,3.811a22.881,22.881,0,0,0,9.2-1.581V415.913H460.22v9.365a12,12,0,0,1-4.5.851,9.047,9.047,0,0,1-7.054-2.716,10.327,10.327,0,0,1-2.432-7.094,10,10,0,0,1,2.8-7.459,9.844,9.844,0,0,1,7.175-2.8,14.68,14.68,0,0,1,7.094,1.7v-4.175a16.32,16.32,0,0,0-7.418-1.459,13.8,13.8,0,0,0-14.391,14.147" transform="translate(-404.659 -402.13)" fill="#125575"/>
        <rect id="Rectangle_3" data-name="Rectangle 3" width="4.662" height="26.755" transform="translate(26.57 0.567)" fill="#125575"/>
        <path id="Path_14" data-name="Path 14" d="M393.337,402.925V429.64H398V406.532h4.824c3.445,0,5.715,2.027,5.715,5.311,0,2.959-2.716,5.594-7.7,5.919v.568c.487.608,1.865,2.473,4.176,5.635,2.31,3.122,3.729,5.027,4.256,5.675h5.473l-7.986-9.973c4.256-1.5,6.405-4.7,6.405-8.148a7.684,7.684,0,0,0-2.878-6.284,10.356,10.356,0,0,0-6.729-2.31Z" transform="translate(-393.337 -402.317)" fill="#125575"/>
      </g>
    </g>
    <g id="Group_5" data-name="Group 5" transform="translate(304.274 393.296)">
      <path id="Path_15" data-name="Path 15" d="M310.033,445.659l-11.308,7.982a51.742,51.742,0,0,0,41.212,25.125l-2.543-13.791Z" transform="translate(-291.463 -375.345)" fill="#125575"/>
      <path id="Path_16" data-name="Path 16" d="M321.214,413.02l-9.261,6.538,12.033,8.495Z" transform="translate(-286.928 -386.534)" fill="#125575"/>
      <path id="Path_17" data-name="Path 17" d="M331.949,461.282l-4.923-26.695L310.581,446.2Z" transform="translate(-287.398 -379.141)" fill="#125575"/>
      <path id="Path_18" data-name="Path 18" d="M299.717,413.022a51.378,51.378,0,0,0-5.981,17.291l15.237-10.756Z" transform="translate(-293.173 -386.534)" fill="#125575"/>
      <path id="Path_19" data-name="Path 19" d="M324.145,412.829l-2.964-16.065a51.964,51.964,0,0,0-20.874,17.326l11.027,7.783Z" transform="translate(-290.921 -392.107)" fill="#125575"/>
      <path id="Path_20" data-name="Path 20" d="M293.508,436.031a51.41,51.41,0,0,0,4.5,16.167l9.2-6.5Z" transform="translate(-293.251 -378.646)" fill="#125575"/>
      <path id="Path_21" data-name="Path 21" d="M387.785,445.061a51.774,51.774,0,0,0-32.177-47.918c-2.1,4.837,1.863,14.53,4.564,19.389,1.9,3.032,2.527,4,3.826,6.064a15.3,15.3,0,0,1,2.334,8.607,13.461,13.461,0,0,1-26.9,0,15.3,15.3,0,0,1,2.335-8.607c1.3-2.065,1.922-3.032,3.824-6.064,3.544-6.372,9.222-20.6.3-22.206,0,0,.27.02.709.058a51.871,51.871,0,0,0-27,1.583L338.2,496.773A51.762,51.762,0,0,0,387.785,445.061Z" transform="translate(-284.304 -393.296)" fill="#125575"/>
      <path id="Path_22" data-name="Path 22" d="M293.317,434.725l18.57,13.109,20-14.116-.125-.678L313.73,420.314Z" transform="translate(-293.317 -384.034)" fill="#125575"/>
    </g>
  </g>
</svg>
